<svg xmlns="http://www.w3.org/2000/svg" viewBox="0 0 38.1 56.66"><g id="Layer_2" data-name="Layer 2"><g id="Layer_1-2" data-name="Layer 1"><path d="M29.16,56.66h-.22l-11.08-.11.05-.31c.51-2.92,1.15-6.59,1.84-10.58L0,45.44.47,0,27.28.28h.84l-2.44,14h.05c-.73,4.22-1.83,10.52-3,17.21l7.16.08,3.58,0h.29l0,.29c0,.06-.71,3.87-3.14,17-.75,4-1.39,7.48-1.4,7.56ZM18.48,56l10.25.11c.13-.74.61-3.3,1.35-7.34,1.19-6.42,2.78-15,3.09-16.69l-3.27,0L22.65,32C21.15,40.64,19.55,49.88,18.48,56ZM.53,44.92l19.25.21c.1-.57.33-1.92.62-3.56.69-4,1.64-9.5,1.73-9.9l0-.2h0c1.14-6.57,2.22-12.77,2.95-17h-.05L27.5.8h-.23L1,.53Z"/><path d="M22.78,56c1.78-10.24,5.55-32,7.3-42.06h0L32.42.28h-.53L5.34,0,4.88,44.92l19.73.21c.19-1,2.26-13.08,2.39-13.67l11.1.11c0,.11-4.52,24.44-4.54,24.56Z"/></g></g></svg>