<svg xmlns="http://www.w3.org/2000/svg" viewBox="0 0 1873.03 541.58"><defs><style>.cls-1,.cls-2{fill:#fff;}.cls-2{font-size:541.59px;font-family:Bebas-Regular, Bebas;}.cls-3{letter-spacing:0.01em;}.cls-4{letter-spacing:0em;}</style></defs><g id="Layer_2" data-name="Layer 2"><g id="Layer_1-2" data-name="Layer 1"><path class="cls-1" d="M232.73,496.87H231l-88.42-.95.42-2.42c4.06-23.36,9.14-52.62,14.67-84.47L0,407.36,3.74,44.72l214,2.24h6.71L204.94,158.41l.36.06c-5.82,33.62-14.54,83.94-23.8,137.35l57.15.6,28.57.3h2.32l-.25,2.31c-.05.46-5.68,30.92-25.1,135.8-5.93,32-11.05,59.66-11.16,60.28Zm-85.24-5.08,81.76.88c1.09-5.9,4.87-26.37,10.84-58.59,9.49-51.25,22.15-119.65,24.64-133.22l-26.12-.27c-21.55-.23-49.94-.53-57.84-.6C168.79,369.08,156,442.76,147.49,491.79ZM4.21,403.23l153.66,1.63c.8-4.52,2.66-15.27,4.93-28.37,5.54-32,13.13-75.81,13.82-79l.34-1.58.3,0c9.09-52.4,17.67-101.91,23.51-135.65h-.37l19-109.08h-1.77L7.86,48.93Z"/><path class="cls-1" d="M181.83,491.74C196,410,226.13,236.53,240.06,156h-.37L258.74,46.93h-4.26L42.62,44.72l-3.7,358.47,157.51,1.66c1.48-8.27,18-104.32,19-109.07.23,0,88.26.92,88.55.92-.09.82-36.08,195-36.23,196Z"/><text class="cls-2" transform="translate(375.02 460.35)">VINED<tspan class="cls-3" x="1052.83" y="0">E</tspan><tspan class="cls-4" x="1269.46" y="0">V</tspan></text></g></g></svg>