<svg xmlns="http://www.w3.org/2000/svg" viewBox="0 0 303.98 452.15"><defs><style>.cls-1{fill:#fff;}</style></defs><g id="Layer_2" data-name="Layer 2"><g id="Layer_1-2" data-name="Layer 1"><path class="cls-1" d="M232.73,452.15H231l-88.42-.95.42-2.42c4.06-23.36,9.14-52.62,14.67-84.47L0,362.64,3.74,0l214,2.24h6.71L204.94,113.69l.36.06c-5.82,33.62-14.54,83.94-23.8,137.35l57.15.6,28.57.3h2.32l-.25,2.31c-.05.46-5.68,30.92-25.1,135.8-5.93,32-11.05,59.66-11.16,60.28Zm-85.24-5.08,81.76.88c1.09-5.9,4.87-26.37,10.84-58.59,9.49-51.25,22.15-119.65,24.64-133.22l-26.12-.27c-21.55-.23-49.94-.53-57.84-.6-12,69.09-24.77,142.77-33.28,191.8ZM4.21,358.51l153.66,1.63c.8-4.52,2.66-15.27,4.93-28.37,5.54-32,13.13-75.81,13.82-79l.34-1.58h.3c9.09-52.4,17.67-101.91,23.51-135.65h-.37l19-109.08h-1.77L7.86,4.21Z"/><path class="cls-1" d="M181.83,447c14.17-81.74,44.3-255.21,58.23-335.74h-.37L258.74,2.21h-4.26L42.62,0l-3.7,358.47,157.51,1.66c1.48-8.27,18-104.32,19-109.07L304,252c-.09.82-36.08,195-36.23,196Z"/></g></g></svg>